<?xml version="1.0" encoding="utf-8"?>
<!-- Generator: Adobe Illustrator 26.0.3, SVG Export Plug-In . SVG Version: 6.00 Build 0)  -->
<svg version="1.0" id="Layer_1" xmlns="http://www.w3.org/2000/svg" xmlns:xlink="http://www.w3.org/1999/xlink" x="0px" y="0px"
	 viewBox="0 0 234 171" style="enable-background:new 0 0 234 171;" xml:space="preserve">
<style type="text/css">
	.st0{fill:#272525;}
	.st1{fill:none;}
</style>
<path id="D" class="st0" d="M178.1,69.6l13.1,0.1c8.6-0.1,15.7,6.8,15.8,15.4c0,0.1,0,0.2,0,0.3c0.1,8.8-7,16-15.8,16.1c0,0,0,0,0,0
	l-13.1-0.1L178.1,69.6z M184.3,94.5h7.2c4.9-0.1,8.9-4.1,8.9-9c0.1-4.8-3.7-8.9-8.5-9c-0.1,0-0.2,0-0.4,0h-7.2L184.3,94.5z"/>
<polygon id="A" class="st0" points="139.8,101.6 155.8,69.4 172.1,101.6 165.2,101.6 155.9,82.6 146.6,101.6 "/>
<polygon id="M" class="st0" points="100.3,101.6 100.3,69.4 117.1,82.2 133.6,69.4 133.6,101.6 127.4,101.6 127.4,82.2 116.9,89.9 
	106.6,82.1 106.6,101.6 "/>
<path id="O" class="st0" d="M94,85.5c0,8.8-7.2,16-16,16s-16-7.2-16-16s7.2-16,16-16c8.8,0,16,7.1,16,15.9C94,85.4,94,85.5,94,85.5z
	 M78,75.5c-5.5,0-10,4.5-10,10s4.5,10,10,10c5.5,0,10-4.5,10-10C88,80,83.5,75.5,78,75.5C78,75.5,78,75.5,78,75.5L78,75.5z"/>
<polyline id="N" class="st0" points="55.8,101.4 33.5,83.3 33.5,101.4 27,101.4 27,69.6 49.2,88.1 49.2,69.6 55.8,69.6 55.8,101.4 
	"/>
<rect x="21" y="64" class="st1" width="192" height="43"/>
</svg>
